<svg width="30" height="30" viewBox="0 0 30 30" fill="none" xmlns="http://www.w3.org/2000/svg">
<path d="M15 3.74999L15.3687 2.88749C15.2522 2.83763 15.1268 2.81192 15 2.81192C14.8732 2.81192 14.7478 2.83763 14.6313 2.88749L15 3.74999ZM15 26.25L14.535 27.0637C14.6766 27.1446 14.8369 27.1872 15 27.1872C15.1631 27.1872 15.3234 27.1446 15.465 27.0637L15 26.25ZM14.63 2.88874L6.64 6.31249L7.375 8.03749L15.3675 4.61249L14.63 2.88874ZM5.3125 8.32374V16.8987H7.1875V8.32374H5.3125ZM9.56375 24.2237L14.535 27.0637L15.465 25.4362L10.4938 22.595L9.56375 24.2237ZM15.465 27.0637L20.4363 24.2237L19.5062 22.595L14.535 25.4362L15.465 27.0637ZM24.6875 16.8975V8.32499H22.8125V16.9L24.6875 16.8975ZM23.3625 6.31374L15.3687 2.88874L14.6313 4.61124L22.6238 8.03749L23.3625 6.31374ZM24.6875 8.32499C24.6875 7.44999 24.1663 6.65874 23.3625 6.31374L22.6238 8.03749C22.6799 8.06169 22.7277 8.10183 22.7612 8.15294C22.7948 8.20404 22.8126 8.26386 22.8125 8.32499H24.6875ZM20.4363 24.2237C21.7276 23.4858 22.8009 22.4196 23.5475 21.1333C24.2941 19.8469 24.6874 18.3861 24.6875 16.8987H22.8125C22.8123 18.0553 22.5063 19.1913 21.9257 20.1917C21.3451 21.192 20.5104 22.0211 19.5062 22.595L20.4363 24.2237ZM5.3125 16.8987C5.31263 18.3861 5.70591 19.8469 6.45249 21.1333C7.19906 22.4196 8.2724 23.4858 9.56375 24.2237L10.4938 22.595C9.48938 22.021 8.65459 21.1917 8.07397 20.1911C7.49335 19.1906 7.18753 18.0543 7.1875 16.8975L5.3125 16.8987ZM6.6375 6.31249C6.24426 6.4812 5.90913 6.76155 5.67362 7.11882C5.43811 7.47608 5.31256 7.89583 5.3125 8.32374H7.1875C7.1875 8.19874 7.2625 8.08499 7.3775 8.03499L6.6375 6.31249Z" fill="#168C71"/>
<path d="M18.75 12.5L13.75 17.5L11.25 15" stroke="#168C71" stroke-width="1.5" stroke-linecap="round" stroke-linejoin="round"/>
</svg>
