<svg width="30" height="30" viewBox="0 0 30 30" fill="none" xmlns="http://www.w3.org/2000/svg">
<path d="M15 16.25V16.2625M12.5 20V20.0125M17.5 20V20.0125M9.375 10H20.625L20.2737 7.19C20.1982 6.58526 19.9043 6.02895 19.4474 5.62565C18.9905 5.22236 18.4019 4.99987 17.7925 5H12.2075C11.5978 4.99956 11.009 5.22192 10.5518 5.62524C10.0947 6.02856 9.8006 6.58504 9.725 7.19L9.375 10Z" stroke="#168C71" stroke-width="2" stroke-linecap="round" stroke-linejoin="round"/>
<path d="M9.37499 10L7.35999 22.0887C7.30025 22.4469 7.31926 22.8138 7.4157 23.1639C7.51213 23.514 7.68367 23.8389 7.91839 24.116C8.15311 24.393 8.44538 24.6156 8.77485 24.7683C9.10433 24.921 9.46311 25 9.82624 25H20.1737C20.5369 25 20.8956 24.921 21.2251 24.7683C21.5546 24.6156 21.8469 24.393 22.0816 24.116C22.3163 23.8389 22.4878 23.514 22.5843 23.1639C22.6807 22.8138 22.6997 22.4469 22.64 22.0887L20.625 10" stroke="#168C71" stroke-width="2" stroke-linecap="round" stroke-linejoin="round"/>
</svg>
